<svg xmlns="http://www.w3.org/2000/svg" width="24" height="24" fill="none" viewBox="0 0 24 24">
    <path stroke="#238BFE" stroke-linecap="round" stroke-linejoin="round" stroke-width="1.5" d="M14.828 9.828C15.578 9.078 16 8.061 16 7c0-1.06-.421-2.078-1.172-2.828C14.078 3.422 13.061 3 12 3c-1.06 0-2.078.421-2.828 1.172C8.422 4.922 8 5.939 8 7c0 1.06.421 2.078 1.172 2.828C9.922 10.578 10.939 11 12 11c1.06 0 2.078-.421 2.828-1.172zM7.05 16.05C8.363 14.737 10.143 14 12 14c1.857 0 3.637.738 4.95 2.05C18.263 17.363 19 19.143 19 21H5c0-1.857.737-3.637 2.05-4.95z"/>
</svg>
